<svg width="331" height="376" viewBox="0 0 331 376" fill="none" xmlns="http://www.w3.org/2000/svg">
<path fill-rule="evenodd" clip-rule="evenodd" d="M163.719 0.389349C164.629 -0.130456 165.746 -0.129738 166.655 0.391237L328.401 93.0866C329.817 93.8982 330.308 95.7041 329.496 97.1203C328.684 98.5365 326.878 99.0266 325.462 98.215L165.183 6.36056L8.94099 95.6346L328.384 275.876C329.306 276.396 329.879 277.369 329.887 278.427C329.895 279.485 329.337 280.467 328.424 281.001L166.677 375.596C165.749 376.139 164.6 376.134 163.675 375.585L1.44541 279.161C0.535112 278.62 -0.0161426 277.633 0.000360414 276.574C0.0168637 275.515 0.598602 274.546 1.52532 274.034L158.883 187.024L1.50311 98.2248C0.576903 97.7022 0.00288638 96.7223 1.23259e-05 95.6588C-0.00286144 94.5953 0.565851 93.6123 1.48922 93.0847L163.719 0.389349ZM164.929 190.435L8.89564 276.713L165.197 369.614L320.999 278.496L164.929 190.435Z" fill="#35A4F0"/>
<path fill-rule="evenodd" clip-rule="evenodd" d="M327.086 93.6101C328.719 93.6101 330.042 94.9333 330.042 96.5655V277.383C330.042 279.015 328.719 280.338 327.086 280.338C325.454 280.338 324.131 279.015 324.131 277.383V96.5655C324.131 94.9333 325.454 93.6101 327.086 93.6101Z" fill="#35A4F0"/>
<path d="M127.887 195.071C134.758 191.315 134.842 181.477 128.036 177.605L81.1466 150.925C74.4801 147.132 66.2012 151.947 66.2012 159.617V211.929C66.2012 219.523 74.3338 224.346 80.9978 220.703L127.887 195.071Z" fill="#7B7778"/>
<path d="M262.544 212.966C262.544 220.602 254.33 225.421 247.664 221.695L91.8431 134.588C85.0471 130.789 85.0078 121.024 91.773 117.17L159.823 78.4076C162.895 76.6577 166.663 76.66 169.733 78.4138L257.504 128.556C260.62 130.336 262.544 133.65 262.544 137.239V212.966Z" fill="#BDBBBC"/>
<path d="M170.144 296.814C166.973 298.714 163.011 298.709 159.844 296.801L91.9339 255.886C85.3601 251.925 85.5137 242.342 92.211 238.594L160.121 200.591C163.147 198.897 166.836 198.892 169.867 200.579L238.157 238.583C244.882 242.325 245.036 251.944 238.434 255.899L170.144 296.814Z" fill="#231F20"/>
<path fill-rule="evenodd" clip-rule="evenodd" d="M2.95544 93.6101C4.58768 93.6101 5.91088 94.9333 5.91088 96.5655V277.382C5.91088 279.015 4.58768 280.338 2.95544 280.338C1.3232 280.338 0 279.015 0 277.382V96.5655C0 94.9333 1.3232 93.6101 2.95544 93.6101Z" fill="#35A4F0"/>
</svg>
