<svg width="1103" height="376" viewBox="0 0 1103 376" fill="none" xmlns="http://www.w3.org/2000/svg">
<path fill-rule="evenodd" clip-rule="evenodd" d="M163.719 0.389349C164.629 -0.130456 165.746 -0.129738 166.655 0.391237L328.401 93.0866C329.817 93.8982 330.308 95.7041 329.496 97.1203C328.684 98.5365 326.878 99.0266 325.462 98.215L165.183 6.36056L8.94099 95.6346L328.384 275.876C329.306 276.396 329.879 277.369 329.887 278.427C329.895 279.485 329.337 280.467 328.424 281.001L166.677 375.596C165.749 376.139 164.6 376.134 163.675 375.585L1.44541 279.161C0.535112 278.62 -0.0161426 277.633 0.000360414 276.574C0.0168637 275.515 0.598602 274.546 1.52532 274.034L158.883 187.024L1.50311 98.2248C0.576903 97.7022 0.00288638 96.7223 1.23259e-05 95.6588C-0.00286144 94.5953 0.565851 93.6123 1.48922 93.0847L163.719 0.389349ZM164.929 190.435L8.89564 276.713L165.197 369.614L320.999 278.496L164.929 190.435Z" fill="#35A4F0"/>
<path fill-rule="evenodd" clip-rule="evenodd" d="M327.086 93.6101C328.719 93.6101 330.042 94.9333 330.042 96.5655V277.383C330.042 279.015 328.719 280.338 327.086 280.338C325.454 280.338 324.131 279.015 324.131 277.383V96.5655C324.131 94.9333 325.454 93.6101 327.086 93.6101Z" fill="#35A4F0"/>
<path d="M127.887 195.071C134.758 191.315 134.842 181.477 128.036 177.605L81.1466 150.925C74.4801 147.132 66.2012 151.947 66.2012 159.617V211.929C66.2012 219.523 74.3338 224.346 80.9978 220.703L127.887 195.071Z" fill="#7B7778"/>
<path d="M262.544 212.966C262.544 220.602 254.33 225.421 247.664 221.695L91.8431 134.588C85.0471 130.789 85.0078 121.024 91.773 117.17L159.823 78.4076C162.895 76.6577 166.663 76.66 169.733 78.4138L257.504 128.556C260.62 130.336 262.544 133.65 262.544 137.239V212.966Z" fill="#BDBBBC"/>
<path d="M170.144 296.814C166.973 298.714 163.011 298.709 159.844 296.801L91.9339 255.886C85.3601 251.925 85.5137 242.342 92.211 238.594L160.121 200.591C163.147 198.897 166.836 198.892 169.867 200.579L238.157 238.583C244.882 242.325 245.036 251.944 238.434 255.899L170.144 296.814Z" fill="#231F20"/>
<path fill-rule="evenodd" clip-rule="evenodd" d="M2.95544 93.6101C4.58768 93.6101 5.91088 94.9333 5.91088 96.5655V277.382C5.91088 279.015 4.58768 280.338 2.95544 280.338C1.3232 280.338 0 279.015 0 277.382V96.5655C0 94.9333 1.3232 93.6101 2.95544 93.6101Z" fill="#35A4F0"/>
<path d="M423.003 233.739C416.495 233.739 410.747 232.936 405.76 231.331C400.773 229.642 396.546 227.15 393.081 223.856C389.699 220.562 387.121 216.465 385.346 211.566C383.656 206.583 382.811 200.839 382.811 194.335V153.665C382.811 149.779 383.825 146.865 385.854 144.923C387.882 142.895 390.756 141.882 394.475 141.882C398.279 141.882 401.153 142.895 403.097 144.923C405.126 146.865 406.14 149.779 406.14 153.665V194.589C406.14 201.093 407.577 205.992 410.451 209.286C413.325 212.58 417.509 214.227 423.003 214.227C428.413 214.227 432.555 212.58 435.429 209.286C438.302 205.992 439.739 201.093 439.739 194.589V153.665C439.739 149.779 440.711 146.865 442.656 144.923C444.684 142.895 447.558 141.882 451.277 141.882C454.997 141.882 457.828 142.895 459.772 144.923C461.716 146.865 462.688 149.779 462.688 153.665V194.335C462.688 203.035 461.167 210.342 458.124 216.254C455.166 222.082 450.728 226.475 444.811 229.431C438.894 232.303 431.625 233.739 423.003 233.739Z" fill="#483767"/>
<path d="M489.194 233.485C485.643 233.485 482.939 232.556 481.079 230.698C479.219 228.84 478.29 226.094 478.29 222.462V153.411C478.29 149.695 479.219 146.865 481.079 144.923C482.939 142.895 485.39 141.882 488.433 141.882C491.138 141.882 493.251 142.389 494.772 143.402C496.294 144.416 497.984 146.105 499.844 148.47L540.037 198.643H536.486V152.778C536.486 149.23 537.374 146.528 539.149 144.669C541.009 142.811 543.713 141.882 547.264 141.882C550.814 141.882 553.476 142.811 555.251 144.669C557.111 146.528 558.041 149.23 558.041 152.778V222.969C558.041 226.179 557.195 228.755 555.505 230.698C553.814 232.556 551.532 233.485 548.658 233.485C545.784 233.485 543.502 232.978 541.812 231.965C540.206 230.867 538.473 229.178 536.613 226.897L496.421 176.597H499.971V222.462C499.971 226.094 499.041 228.84 497.181 230.698C495.406 232.556 492.744 233.485 489.194 233.485Z" fill="#483767"/>
<path d="M586.038 233.485C582.318 233.485 579.445 232.472 577.416 230.445C575.387 228.333 574.373 225.377 574.373 221.576V153.792C574.373 149.906 575.387 146.95 577.416 144.923C579.445 142.895 582.318 141.882 586.038 141.882C589.841 141.882 592.715 142.895 594.659 144.923C596.688 146.95 597.702 149.906 597.702 153.792V221.576C597.702 225.377 596.73 228.333 594.786 230.445C592.842 232.472 589.926 233.485 586.038 233.485Z" fill="#483767"/>
<path d="M647.09 233.739C643.709 233.739 640.159 233.485 636.44 232.978C632.805 232.556 629.34 231.88 626.043 230.951C622.746 230.022 619.788 228.924 617.168 227.657C614.885 226.559 613.279 225.123 612.35 223.349C611.42 221.491 611.082 219.548 611.335 217.521C611.589 215.494 612.307 213.72 613.491 212.2C614.674 210.595 616.238 209.539 618.182 209.032C620.126 208.441 622.324 208.694 624.775 209.793C627.987 211.313 631.622 212.495 635.679 213.34C639.736 214.185 643.54 214.607 647.09 214.607C652.669 214.607 656.557 213.889 658.755 212.453C661.037 210.933 662.178 209.075 662.178 206.878C662.178 204.936 661.375 203.373 659.769 202.191C658.248 201.008 655.501 199.994 651.528 199.15L636.693 195.982C628.579 194.293 622.535 191.337 618.562 187.113C614.59 182.89 612.603 177.442 612.603 170.769C612.603 166.377 613.491 162.407 615.266 158.86C617.125 155.228 619.703 152.144 623 149.611C626.381 147.077 630.354 145.134 634.918 143.782C639.567 142.346 644.723 141.628 650.387 141.628C654.782 141.628 659.22 142.135 663.7 143.149C668.264 144.078 672.195 145.514 675.491 147.457C677.435 148.47 678.83 149.864 679.675 151.638C680.521 153.411 680.859 155.27 680.69 157.212C680.521 159.071 679.844 160.718 678.661 162.154C677.562 163.59 676.041 164.561 674.097 165.068C672.237 165.49 669.997 165.152 667.377 164.054C664.925 162.956 662.136 162.154 659.008 161.647C655.965 161.056 653.007 160.76 650.133 160.76C647.006 160.76 644.343 161.14 642.145 161.9C639.948 162.576 638.257 163.59 637.074 164.941C635.975 166.293 635.425 167.855 635.425 169.629C635.425 171.403 636.144 172.923 637.581 174.19C639.102 175.373 641.85 176.386 645.822 177.231L660.53 180.398C668.729 182.172 674.857 185.086 678.915 189.141C682.972 193.195 685 198.474 685 204.978C685 209.37 684.113 213.34 682.338 216.888C680.563 220.435 678.027 223.476 674.73 226.01C671.434 228.46 667.461 230.36 662.812 231.711C658.163 233.063 652.923 233.739 647.09 233.739Z" fill="#483767"/>
<path d="M741.596 233.739C731.706 233.739 723.211 231.838 716.111 228.037C709.01 224.236 703.558 218.873 699.755 211.946C696.036 205.02 694.176 196.911 694.176 187.62C694.176 180.694 695.233 174.401 697.346 168.742C699.543 163.083 702.671 158.226 706.728 154.172C710.87 150.117 715.857 147.034 721.689 144.923C727.606 142.727 734.242 141.628 741.596 141.628C745.484 141.628 749.499 142.093 753.641 143.022C757.867 143.867 761.586 145.176 764.798 146.95C767.165 148.217 768.813 149.822 769.743 151.764C770.673 153.707 770.969 155.692 770.631 157.719C770.377 159.746 769.658 161.562 768.475 163.167C767.292 164.772 765.77 165.87 763.911 166.461C762.051 166.968 760.022 166.673 757.825 165.575C755.289 164.392 752.753 163.505 750.217 162.914C747.766 162.238 745.188 161.9 742.483 161.9C737.242 161.9 732.847 162.914 729.297 164.941C725.831 166.884 723.211 169.756 721.436 173.557C719.661 177.358 718.773 182.045 718.773 187.62C718.773 193.195 719.661 197.925 721.436 201.811C723.211 205.611 725.831 208.526 729.297 210.553C732.847 212.495 737.242 213.467 742.483 213.467C744.681 213.467 747.048 213.213 749.583 212.707C752.119 212.115 754.613 211.228 757.064 210.046C759.6 208.948 761.84 208.652 763.784 209.159C765.812 209.666 767.418 210.679 768.602 212.2C769.87 213.72 770.673 215.494 771.011 217.521C771.349 219.464 771.053 221.407 770.123 223.349C769.278 225.292 767.757 226.855 765.559 228.037C762.6 229.811 758.924 231.205 754.528 232.218C750.217 233.232 745.906 233.739 741.596 233.739Z" fill="#483767"/>
<path d="M795.415 233.485C791.696 233.485 788.822 232.472 786.793 230.445C784.765 228.333 783.75 225.419 783.75 221.702V154.805C783.75 151.004 784.765 148.09 786.793 146.063C788.906 144.036 791.823 143.022 795.542 143.022H826.732C836.875 143.022 844.694 145.514 850.188 150.497C855.767 155.396 858.557 162.238 858.557 171.023C858.557 176.682 857.289 181.623 854.753 185.846C852.302 189.985 848.709 193.195 843.976 195.476C839.327 197.672 833.579 198.77 826.732 198.77L827.747 196.489H833.833C837.467 196.489 840.679 197.376 843.469 199.15C846.258 200.839 848.582 203.458 850.442 207.005L856.782 218.408C858.134 220.858 858.768 223.265 858.683 225.63C858.599 227.911 857.669 229.811 855.894 231.331C854.203 232.767 851.71 233.485 848.413 233.485C845.117 233.485 842.412 232.81 840.299 231.458C838.27 230.107 836.453 227.995 834.847 225.123L823.309 203.964C822.295 202.106 820.984 200.839 819.378 200.163C817.857 199.403 816.082 199.023 814.053 199.023H807.08V221.702C807.08 225.419 806.108 228.333 804.164 230.445C802.219 232.472 799.303 233.485 795.415 233.485ZM807.08 182.552H822.548C827.028 182.552 830.451 181.665 832.818 179.892C835.185 178.118 836.368 175.373 836.368 171.656C836.368 168.109 835.185 165.448 832.818 163.674C830.451 161.816 827.028 160.887 822.548 160.887H807.08V182.552Z" fill="#483767"/>
<path d="M915.761 233.739C906.716 233.739 898.771 231.838 891.924 228.037C885.078 224.152 879.752 218.746 875.949 211.82C872.23 204.894 870.37 196.827 870.37 187.62C870.37 180.694 871.427 174.401 873.54 168.742C875.737 163.083 878.823 158.226 882.795 154.172C886.853 150.117 891.671 147.034 897.25 144.923C902.828 142.727 908.999 141.628 915.761 141.628C924.805 141.628 932.709 143.529 939.471 147.33C946.317 151.131 951.643 156.494 955.446 163.421C959.25 170.262 961.152 178.329 961.152 187.62C961.152 194.546 960.053 200.839 957.855 206.498C955.742 212.158 952.657 217.057 948.6 221.195C944.627 225.25 939.851 228.375 934.272 230.571C928.693 232.683 922.523 233.739 915.761 233.739ZM915.761 214.227C920.241 214.227 924.044 213.171 927.172 211.06C930.299 208.948 932.709 205.907 934.399 201.937C936.09 197.967 936.935 193.195 936.935 187.62C936.935 179.258 935.075 172.754 931.356 168.109C927.637 163.463 922.439 161.14 915.761 161.14C911.365 161.14 907.562 162.196 904.35 164.308C901.222 166.335 898.813 169.333 897.123 173.303C895.432 177.189 894.587 181.961 894.587 187.62C894.587 195.982 896.447 202.528 900.166 207.259C903.885 211.904 909.083 214.227 915.761 214.227Z" fill="#483767"/>
<path d="M1007.31 233.485C1004.19 233.485 1001.65 232.767 999.707 231.331C997.763 229.811 996.241 227.488 995.143 224.363L970.418 155.565C969.066 151.764 969.277 148.555 971.052 145.936C972.912 143.233 976.166 141.882 980.815 141.882C983.943 141.882 986.394 142.642 988.169 144.162C989.944 145.598 991.339 147.879 992.353 151.004L1011.24 207.639H1005.29L1025.57 151.004C1026.76 147.879 1028.23 145.598 1030.01 144.162C1031.78 142.642 1034.07 141.882 1036.86 141.882C1039.65 141.882 1041.89 142.642 1043.58 144.162C1045.27 145.598 1046.66 147.921 1047.76 151.131L1066.78 207.639H1061.71L1081.11 151.004C1082.12 147.879 1083.47 145.598 1085.16 144.162C1086.94 142.642 1089.39 141.882 1092.52 141.882C1096.41 141.882 1099.24 143.233 1101.01 145.936C1102.87 148.555 1103.08 151.764 1101.65 155.565L1076.67 224.49C1075.57 227.53 1074.05 229.811 1072.1 231.331C1070.24 232.767 1067.75 233.485 1064.62 233.485C1061.41 233.485 1058.83 232.767 1056.89 231.331C1055.03 229.811 1053.55 227.488 1052.45 224.363L1034.57 174.19H1037.74L1019.49 224.49C1018.3 227.53 1016.78 229.811 1014.92 231.331C1013.06 232.767 1010.53 233.485 1007.31 233.485Z" fill="#483767"/>
</svg>
